<svg xmlns="http://www.w3.org/2000/svg" version="1.1" xmlns:xlink="http://www.w3.org/1999/xlink" width="29" height="29"><svg xmlns="http://www.w3.org/2000/svg" version="1.1" xmlns:xlink="http://www.w3.org/1999/xlink" width="29" height="29"><svg width="29" height="29" viewBox="0 0 29 29" fill="none" xmlns="http://www.w3.org/2000/svg">
<path d="M14.5449 3.8584L7.99023 15.5098V16.6666L12.2742 16.9665L13.388 24.8057H14.5449L20.9274 13.4109V12.34L16.558 12.0401L15.23 3.8584H14.5449Z" fill="white"></path>
<path d="M14.2471 2.60661C14.4922 2.38878 14.8312 2.31985 15.1514 2.43669C15.3038 2.4911 15.4389 2.58536 15.542 2.71013C15.645 2.83499 15.7128 2.98569 15.7373 3.14568L17.0029 11.633L21.1006 11.7199C21.1935 11.7218 21.2842 11.7375 21.3701 11.7648C21.6731 11.8616 21.9168 12.1064 22.0019 12.4211L23.4316 17.6994C23.4779 17.8677 23.4759 18.0462 23.4248 18.2131C23.3735 18.38 23.2754 18.5294 23.1426 18.6427L14.376 26.1623C14.1272 26.3762 13.787 26.4397 13.4687 26.3176C13.3172 26.2605 13.1829 26.1639 13.082 26.0373C12.9813 25.9108 12.9163 25.759 12.8945 25.5988L11.7812 17.1759L7.76366 17.1593C7.67078 17.159 7.5804 17.1452 7.49413 17.1193C7.18924 17.0277 6.94093 16.7873 6.85057 16.4738L5.333 11.2199C5.28385 11.0523 5.28354 10.8741 5.33202 10.7062C5.38051 10.5383 5.47542 10.3873 5.60643 10.2717L14.2471 2.60661ZM15.0049 4.64568C14.9696 4.40909 14.6492 4.35115 14.5351 4.56072L8.43847 15.7785C8.32878 15.9805 8.47823 16.2277 8.71093 16.2287L12.5976 16.2453L12.5986 16.2531H12.6133L13.6523 24.1115C13.6837 24.3486 14.0026 24.4117 14.1201 24.2043L20.4023 13.089C20.5151 12.8889 20.3703 12.6398 20.1377 12.6349L16.1914 12.5519L16.1885 12.5324H16.1846L16.1816 12.5343L15.0049 4.64568Z" fill="#0C344B"></path>
</svg></svg><style>@media (prefers-color-scheme: light) { :root { filter: none; } }
@media (prefers-color-scheme: dark) { :root { filter: none; } }
</style></svg>